<?xml version="1.0" encoding="utf-8"?>
<!-- Generator: Adobe Adobe Illustrator 24.2.0, SVG Export Plug-In . SVG Version: 6.00 Build 0)  -->
<svg version="1.1" id="Layer_1" xmlns="http://www.w3.org/2000/svg" xmlns:xlink="http://www.w3.org/1999/xlink" x="0px" y="0px"
	 width="412.95px" height="232.26px" viewBox="0 0 412.95 232.26" style="enable-background:new 0 0 412.95 232.26;"
	 xml:space="preserve">
<style type="text/css">
	.st0{clip-path:url(#SVGID_2_);}
	.st1{fill:#FF4210;}
	.st2{fill:#BED326;}
	.st3{fill:#4782BD;}
	.st4{fill:#C7E828;}
	.st5{fill:#1F1B11;}
	.st6{fill:#2F2A17;}
	.st7{fill:#FFFFFF;}
	.st8{fill:#4BA132;}
	.st9{fill:#CADE26;}
	.st10{fill:#1F1B11;stroke:#1F1B11;stroke-width:0.25;stroke-linecap:round;stroke-linejoin:round;stroke-miterlimit:10;}
	.st11{fill:#FF4210;stroke:#FF4210;stroke-width:0.5;stroke-miterlimit:10;}
</style>
<g>
	<g>
		<g>
			<path class="st1" d="M41.35,64.05v-3.01c-1.71,2.01-6.23,3.01-7.94,3.01h-3.55c-11.14,0-12.72-6.97-12.72-13.25v-5.06
				c0-7.5,2.46-13.08,12.55-13.08h9.17c3.91,0,6.93,2.75,6.93,6.54v5.45h-9.39c0-2.83-1.58-5.27-4.69-5.27
				c-3.73,0-5.44,2.88-5.44,8.94c0,4.4,1.01,8.89,5.44,8.89c0.57,0,4.91,0.52,5.62-3.05h-3.91v-4.32h12.37v14.21H41.35z"/>
			<path class="st1" d="M78.03,64.62c-3.51-0.44-7.02-3.27-7.9-8.11c-1.18-6.45-3.6-6.02-5.88-6.02h-1.71v13.51H52.1V32.63h20.71
				c5.57,0,10.09,4.1,10.09,8.81c0,4.14-3.2,7.98-7.28,8.06c1.14,0.52,2.37,1.87,2.85,3.49c1.05,3.49,1.4,8.24,6.27,7.72v2.4
				C84.74,63.1,81.58,65.06,78.03,64.62z M70.97,38.82h-8.42v5.36h8.34c1.36,0,2.94-0.78,2.94-2.66
				C73.82,41.08,73.55,38.82,70.97,38.82z"/>
			<path class="st1" d="M109.18,64.01H94.35c-3.16,0-6.05-2.7-6.05-6.02V32.63h9.92v21.36c0,2.57,2.41,2.96,2.9,2.96
				c2.11,0,2.98-1.7,2.98-2.96V32.63h11.23v25.46C115.33,61.66,112.39,64.01,109.18,64.01z"/>
			<path class="st1" d="M142.4,52.02h-10.49v11.99h-10.44V32.63h20.93c5.57,0,9.92,4.53,9.92,9.72
				C152.31,50.8,144.55,52.02,142.4,52.02z M140.29,38.73h-8.38v5.97h8.29c1.36,0,3.07-0.87,3.07-2.96
				C143.28,41.26,142.88,38.73,140.29,38.73z"/>
			<path class="st1" d="M177.89,64.01h-14.79c-3.16,0-6.14-2.7-6.14-6.02V38.73c0-3.36,2.46-6.1,6.14-6.1h14.79
				c2.5,0,6.27,1.96,6.27,6.1v19.35C184.17,61.66,181.1,64.01,177.89,64.01z M171.36,41.78c0-1.35-0.88-3.05-2.98-3.05
				c-0.48,0-2.9,0.39-2.9,2.96v12.29c0,1.92,1.14,2.96,2.9,2.96c1.93,0,2.98-1.22,2.98-2.96V41.78z"/>
		</g>
		<g>
			<path class="st4" d="M211.11,63.57V13.57h16.5v34.59h28.73v15.42H211.11z"/>
			<path class="st4" d="M261.58,54.13V23.29c0-6.6,6.01-9.72,10-9.72h23.56c5.87,0,9.79,4.38,9.79,9.72v30.7
				c0,5.28-4.75,9.58-9.79,9.58h-23.56C266.48,63.57,261.58,59.82,261.58,54.13z M282,47.6c0,2.78,1.68,4.72,4.75,4.72
				c2.8,0,4.61-1.67,4.61-4.72V28.01c0-4.1-3.84-4.72-4.61-4.72c-3.36,0-4.75,2.71-4.75,4.86V47.6z"/>
			<path class="st4" d="M333.73,64.68c-13.21,0-19.22-7.71-20.48-10.9l8.32-4.44c2.31,4.93,8.46,6.18,12.16,5.63
				c4.05-0.63,5.52-2.78,5.38-5.14c-0.49-8.61-23.63-7.08-24.68-20.63c-1.19-15.28,12.51-16.95,22.3-16.74
				c7.9,0.14,14.4,4.1,14.4,10.07v4.72h-13.35c-0.21-4.51-4.12-4.79-5.73-4.72c-3.64,0.21-5.1,2.08-4.96,3.89
				c0.35,7.5,28.31,1.6,29.29,21.18C357.01,58.5,347.57,64.68,333.73,64.68z"/>
		</g>
		<g>
			<path class="st3" d="M68.08,161.66v-51.27l-14.3,13.05l-14.61-13.05v51.27H14.05V86.47h18.18l21.86,18.59l22.18-18.59H93.2v75.18
				H68.08z"/>
			<path class="st3" d="M108.23,161.66V86.47h53.5v14.83h-28.48v13.99h9.99v17.54h-9.99v8.35h34.48v20.47H108.23z"/>
			<path class="st3" d="M180.44,161.66V86.47h24.81v52h43.2v23.18H180.44z"/>
			<path class="st3" d="M306.46,161.66h-35.42c-7.57,0-14.72-6.47-14.72-14.41v-46.16c0-8.04,5.89-14.62,14.72-14.62h35.42
				c5.99,0,15.03,4.7,15.03,14.62v46.36C321.49,156.02,314.14,161.66,306.46,161.66z M290.8,108.4c0-3.24-2.1-7.31-7.15-7.31
				c-1.16,0-6.94,0.94-6.94,7.1v29.45c0,4.59,2.73,7.1,6.94,7.1c4.62,0,7.15-2.92,7.15-7.1V108.4z"/>
			<path class="st3" d="M364.8,163.33c-19.87,0-28.9-11.59-30.8-16.39l12.51-6.68c3.47,7.41,12.72,9.29,18.29,8.46
				c6.1-0.94,8.3-4.18,8.09-7.73c-0.74-12.95-35.53-10.65-37.1-31.01C334,86.99,354.6,84.49,369.32,84.8
				c11.88,0.21,21.65,6.16,21.65,15.14v7.1H370.9c-0.32-6.79-6.2-7.21-8.62-7.1c-5.47,0.31-7.67,3.13-7.46,5.85
				c0.53,11.28,42.57,2.4,44.04,31.85C399.8,154.03,385.61,163.33,364.8,163.33z"/>
		</g>
	</g>
	<g>
		<path class="st5" d="M27.86,198.79c-1.1-1.02-2.2-1.09-2.69-1.09c-1.1,0-1.78,0.53-1.78,1.32c0,0.42,0.19,1.05,1.48,1.47l1.1,0.34
			c1.29,0.42,3.22,1.05,4.17,2.33c0.49,0.68,0.83,1.65,0.83,2.71c0,1.47-0.49,2.93-1.82,4.14c-1.32,1.2-2.92,1.73-4.92,1.73
			c-3.41,0-5.34-1.62-6.36-2.71l2.42-2.78c0.91,1.05,2.27,1.88,3.64,1.88c1.28,0,2.27-0.64,2.27-1.77c0-1.02-0.84-1.43-1.44-1.66
			l-1.06-0.37c-1.17-0.41-2.54-0.94-3.52-1.96c-0.75-0.79-1.25-1.8-1.25-3.12c0-1.58,0.75-2.9,1.7-3.68
			c1.29-1.02,2.95-1.17,4.28-1.17c1.21,0,3.14,0.15,5.22,1.73L27.86,198.79z"/>
		<path class="st5" d="M50.59,194.91h4.62v16.29h-4.62v-2.11c-1.66,2.37-3.86,2.63-5.04,2.63c-5.04,0-8.37-3.91-8.37-8.69
			c0-4.82,3.3-8.65,8.14-8.65c1.25,0,3.71,0.23,5.26,2.64V194.91z M41.95,203.04c0,2.6,1.89,4.63,4.54,4.63
			c2.65,0,4.54-2.03,4.54-4.63c0-2.59-1.89-4.59-4.54-4.59C43.85,198.45,41.95,200.44,41.95,203.04z"/>
		<path class="st5" d="M68.02,183.78v27.42H63.4v-27.42H68.02z"/>
		<path class="st5" d="M85.14,198.79c-1.1-1.02-2.2-1.09-2.69-1.09c-1.1,0-1.78,0.53-1.78,1.32c0,0.42,0.19,1.05,1.48,1.47l1.1,0.34
			c1.29,0.42,3.22,1.05,4.17,2.33c0.49,0.68,0.83,1.65,0.83,2.71c0,1.47-0.49,2.93-1.82,4.14c-1.32,1.2-2.92,1.73-4.92,1.73
			c-3.41,0-5.34-1.62-6.36-2.71l2.42-2.78c0.91,1.05,2.27,1.88,3.64,1.88c1.29,0,2.27-0.64,2.27-1.77c0-1.02-0.84-1.43-1.44-1.66
			l-1.06-0.37c-1.17-0.41-2.54-0.94-3.52-1.96c-0.75-0.79-1.25-1.8-1.25-3.12c0-1.58,0.75-2.9,1.7-3.68
			c1.29-1.02,2.95-1.17,4.28-1.17c1.21,0,3.14,0.15,5.22,1.73L85.14,198.79z"/>
		<path class="st5" d="M107.87,194.91h4.62v16.29h-4.62v-2.11c-1.66,2.37-3.86,2.63-5.04,2.63c-5.04,0-8.37-3.91-8.37-8.69
			c0-4.82,3.3-8.65,8.14-8.65c1.25,0,3.71,0.23,5.26,2.64V194.91z M99.24,203.04c0,2.6,1.89,4.63,4.54,4.63s4.54-2.03,4.54-4.63
			c0-2.59-1.89-4.59-4.54-4.59S99.24,200.44,99.24,203.04z"/>
		<path class="st5" d="M141.24,219.82h-4.62v-24.9h4.62v2.11c0.72-1.02,2.31-2.64,5.34-2.64c1.44,0,3.75,0.34,5.61,2.18
			c1.21,1.2,2.46,3.23,2.46,6.47c0,3.69-1.63,5.68-2.58,6.58c-1.25,1.17-3.14,2.11-5.56,2.11c-1.14,0-3.45-0.19-5.26-2.63V219.82z
			 M142.34,199.54c-1.02,0.87-1.55,2-1.55,3.5c0,1.51,0.61,2.75,1.52,3.54c0.61,0.53,1.59,1.09,3.03,1.09c1.52,0,2.5-0.6,3.11-1.17
			c0.98-0.9,1.44-2.26,1.44-3.46c0-1.2-0.49-2.56-1.4-3.42c-0.83-0.75-2.05-1.17-3.14-1.17
			C144.12,198.45,143.17,198.79,142.34,199.54z"/>
		<path class="st5" d="M174.57,194.91h4.62v16.29h-4.62v-2.11c-1.66,2.37-3.86,2.63-5.04,2.63c-5.04,0-8.37-3.91-8.37-8.69
			c0-4.82,3.3-8.65,8.14-8.65c1.25,0,3.71,0.23,5.26,2.64V194.91z M165.94,203.04c0,2.6,1.89,4.63,4.54,4.63s4.54-2.03,4.54-4.63
			c0-2.59-1.89-4.59-4.54-4.59S165.94,200.44,165.94,203.04z"/>
		<path class="st5" d="M191.71,185.62l4.24,0.49l-5.34,9.97l-2.92-0.34L191.71,185.62z"/>
		<path class="st5" d="M208.22,183.78v27.42h-4.62v-27.42H208.22z"/>
		<path class="st5" d="M236.97,197.02c1.63-2.26,3.94-2.64,5.34-2.64c4.85,0,8.07,3.72,8.07,8.65c0,4.97-3.33,8.69-8.18,8.69
			c-1.06,0-3.45-0.19-5.23-2.63v2.11h-4.62v-27.42h4.62V197.02z M236.51,203.04c0,2.6,1.89,4.63,4.54,4.63
			c2.65,0,4.55-2.03,4.55-4.63c0-2.59-1.89-4.59-4.55-4.59C238.41,198.45,236.51,200.44,236.51,203.04z"/>
		<path class="st5" d="M270.3,194.91h4.62v16.29h-4.62v-2.11c-1.66,2.37-3.86,2.63-5.04,2.63c-5.04,0-8.37-3.91-8.37-8.69
			c0-4.82,3.3-8.65,8.14-8.65c1.25,0,3.71,0.23,5.26,2.64V194.91z M261.67,203.04c0,2.6,1.89,4.63,4.54,4.63
			c2.65,0,4.54-2.03,4.54-4.63c0-2.59-1.89-4.59-4.54-4.59C263.56,198.45,261.67,200.44,261.67,203.04z"/>
		<path class="st5" d="M285.43,185.28c1.51,0,2.76,1.24,2.76,2.75c0,1.5-1.25,2.75-2.76,2.75s-2.76-1.24-2.76-2.75
			C282.66,186.52,283.91,185.28,285.43,185.28z M287.73,194.91v16.29h-4.62v-16.29H287.73z"/>
		<path class="st5" d="M300.54,183.78v27.42h-4.62v-27.42H300.54z"/>
		<path class="st5" d="M321.29,194.91h4.62v16.29h-4.62v-2.11c-1.66,2.37-3.86,2.63-5.04,2.63c-5.04,0-8.37-3.91-8.37-8.69
			c0-4.82,3.3-8.65,8.14-8.65c1.25,0,3.71,0.23,5.26,2.64V194.91z M312.66,203.04c0,2.6,1.89,4.63,4.54,4.63
			c2.65,0,4.54-2.03,4.54-4.63c0-2.59-1.89-4.59-4.54-4.59C314.56,198.45,312.66,200.44,312.66,203.04z"/>
		<path class="st5" d="M346.68,183.78h4.62v27.42h-4.62v-2.11c-1.66,2.37-3.86,2.63-5.04,2.63c-5.04,0-8.37-3.91-8.37-8.69
			c0-4.82,3.3-8.65,8.14-8.65c1.25,0,3.71,0.23,5.26,2.64V183.78z M338.05,203.04c0,2.6,1.89,4.63,4.54,4.63
			c2.65,0,4.54-2.03,4.54-4.63c0-2.59-1.89-4.59-4.54-4.59C339.94,198.45,338.05,200.44,338.05,203.04z"/>
		<path class="st5" d="M374.68,196.68c1.63,1.47,2.76,3.72,2.76,6.39c0,2.64-1.14,4.89-2.76,6.36c-1.4,1.28-3.52,2.29-6.63,2.29
			c-3.11,0-5.23-1.01-6.63-2.29c-1.63-1.47-2.77-3.72-2.77-6.36c0-2.67,1.14-4.93,2.77-6.39c1.4-1.28,3.52-2.3,6.63-2.3
			C371.16,194.39,373.28,195.4,374.68,196.68z M372.67,203.07c0-2.56-1.97-4.62-4.62-4.62c-2.65,0-4.62,2.07-4.62,4.62
			c0,2.48,1.93,4.59,4.62,4.59C370.74,207.67,372.67,205.56,372.67,203.07z"/>
		<path class="st5" d="M384.8,194.91h4.62v2.44c0.72-1.39,1.71-2.07,2.05-2.26c0.72-0.45,1.63-0.72,2.73-0.72
			c0.8,0,1.44,0.19,1.97,0.38l-0.61,4.29c-0.61-0.41-1.21-0.6-2.16-0.6c-0.87,0-2.16,0.19-3.07,1.32c-0.87,1.09-0.91,2.48-0.91,3.61
			v7.83h-4.62V194.91z"/>
	</g>
</g>
</svg>
